# xmcd
#
# Track frame offsets:
#	150
#	10712
#	26387
#	36832
#	45670
#	54830
#	67375
#	78210
#	91760
#	100827
#	112112
#	119985
#
# Disc length: 1716 seconds
# Revision: 1
# Processed by: cddbd v1.5.2PL0 Copyright (c) Steve Scherf et al.
# Submitted via: dBpowerAMP V12.0
#
DISCID=9706b20c
DTITLE=Smiley Burnette - Smiley Burnette
DYEAR=1998
DGENRE=Country
TTITLE0=Ramblin' Blood
TTITLE1=Red River Valley/Clementine
TTITLE2=Gran'pa Frog
TTITLE3=That's All Brother, That's All
TTITLE4=Thievin' Burro
TTITLE5=Way Down Low/I Wish That I Said That
TTITLE6=Smart Alec Crow
TTITLE7=No Kids/Prairie Dog Lament
TTITLE8=Deep Froggy Blues
TTITLE9=Buffalo Gals/She'll Be Comin' Round The Mountian
TTITLE10=Boss Of The Town
TTITLE11=The Magic Guitar
EXTD=
EXTT0=
EXTT1=
EXTT2=
EXTT3=
EXTT4=
EXTT5=
EXTT6=
EXTT7=
EXTT8=
EXTT9=
EXTT10=
EXTT11=
PLAYORDER=
